<svg id="Livello_1" data-name="Livello 1" xmlns="http://www.w3.org/2000/svg" viewBox="0 0 246.6 202.4"><defs><style>.cls-1{fill:#f90;stroke:#000;stroke-miterlimit:10;}.cls-2{font-size:104px;font-family:Arial;font-weight:700;}</style></defs><title>tag</title><path class="cls-1" d="M256.34,125L116.8,38.58a23.86,23.86,0,0,0-16.41-3.45L42.27,44.51A24,24,0,0,0,23.2,75.32l17.49,56.25A24,24,0,0,0,51,144.86l139.53,86.37a23.79,23.79,0,0,0,32.85-7.91l40.7-65.75A23.49,23.49,0,0,0,256.34,125ZM56.45,96A18.24,18.24,0,1,1,81.55,90,18.24,18.24,0,0,1,56.45,96Z" transform="translate(-21.61 -34.33)"/><text class="cls-2" transform="matrix(0.85, 0.53, -0.53, 0.85, 98.58, 120.44)">%</text></svg>